<?xml version="1.0" encoding="UTF-8" standalone="no"?>
<!DOCTYPE svg PUBLIC "-//W3C//DTD SVG 1.1//EN"
 "http://www.w3.org/Graphics/SVG/1.1/DTD/svg11.dtd">
<!-- Generated by graphviz version 2.36.0 (20140111.2315)
 -->
<!-- Title: G Pages: 1 -->
<svg width="510pt" height="1168pt"
 viewBox="0.00 0.00 510.00 1168.00" xmlns="http://www.w3.org/2000/svg" xmlns:xlink="http://www.w3.org/1999/xlink">
<g id="graph0" class="graph" transform="scale(1 1) rotate(0) translate(4 1164)">
<title>G</title>
<polygon fill="white" stroke="none" points="-4,4 -4,-1164 506,-1164 506,4 -4,4"/>
<g id="clust1" class="cluster"><title>cluster_Global</title>
<path fill="none" stroke="gray" d="M160,-8C160,-8 482,-8 482,-8 488,-8 494,-14 494,-20 494,-20 494,-1140 494,-1140 494,-1146 488,-1152 482,-1152 482,-1152 160,-1152 160,-1152 154,-1152 148,-1146 148,-1140 148,-1140 148,-20 148,-20 148,-14 154,-8 160,-8"/>
<text text-anchor="middle" x="321" y="-1139.2" font-family="Times,serif" font-size="11.00" fill="gray">Global</text>
</g>
<g id="clust2" class="cluster"><title>cluster_\net</title>
<path fill="none" stroke="gray" d="M168,-16C168,-16 474,-16 474,-16 480,-16 486,-22 486,-28 486,-28 486,-1112 486,-1112 486,-1118 480,-1124 474,-1124 474,-1124 168,-1124 168,-1124 162,-1124 156,-1118 156,-1112 156,-1112 156,-28 156,-28 156,-22 162,-16 168,-16"/>
<text text-anchor="middle" x="321" y="-1111.2" font-family="Times,serif" font-size="11.00" fill="gray">net</text>
</g>
<g id="clust3" class="cluster"><title>cluster_\net\netatmo</title>
<path fill="none" stroke="gray" d="M176,-24C176,-24 466,-24 466,-24 472,-24 478,-30 478,-36 478,-36 478,-1084 478,-1084 478,-1090 472,-1096 466,-1096 466,-1096 176,-1096 176,-1096 170,-1096 164,-1090 164,-1084 164,-1084 164,-36 164,-36 164,-30 170,-24 176,-24"/>
<text text-anchor="middle" x="321" y="-1083.2" font-family="Times,serif" font-size="11.00" fill="gray">netatmo</text>
</g>
<g id="clust4" class="cluster"><title>cluster_\net\netatmo\Example</title>
<path fill="none" stroke="gray" d="M364,-996C364,-996 438,-996 438,-996 444,-996 450,-1002 450,-1008 450,-1008 450,-1056 450,-1056 450,-1062 444,-1068 438,-1068 438,-1068 364,-1068 364,-1068 358,-1068 352,-1062 352,-1056 352,-1056 352,-1008 352,-1008 352,-1002 358,-996 364,-996"/>
<text text-anchor="middle" x="401" y="-1055.2" font-family="Times,serif" font-size="11.00" fill="gray">Example</text>
</g>
<!-- \\net\\netatmo\\Example\\ExampleClient -->
<g id="node1" class="node"><title>\\net\\netatmo\\Example\\ExampleClient</title>
<polygon fill="none" stroke="black" points="442,-1040 360,-1040 360,-1004 442,-1004 442,-1040"/>
<text text-anchor="middle" x="401" y="-1019.2" font-family="Times,serif" font-size="11.00">ExampleClient</text>
</g>
<!-- \\net\\netatmo\\ClientException -->
<g id="node2" class="node"><title>\\net\\netatmo\\ClientException</title>
<polygon fill="none" stroke="black" points="260,-878 172,-878 172,-842 260,-842 260,-878"/>
<text text-anchor="middle" x="216" y="-857.2" font-family="Times,serif" font-size="11.00">ClientException</text>
</g>
<!-- \\Exception -->
<g id="node21" class="node"><title>\\Exception</title>
<ellipse fill="none" stroke="black" cx="50" cy="-860" rx="50.0912" ry="18"/>
<text text-anchor="middle" x="50" y="-856.3" font-family="Times,serif" font-size="14.00" fill="gray">\Exception</text>
</g>
<!-- \\net\\netatmo\\ClientException&#45;&gt;\\Exception -->
<g id="edge1" class="edge"><title>\\net\\netatmo\\ClientException&#45;&gt;\\Exception</title>
<path fill="none" stroke="black" d="M171.911,-860C153.076,-860 130.675,-860 110.303,-860"/>
<polygon fill="none" stroke="black" points="110.178,-856.5 100.178,-860 110.178,-863.5 110.178,-856.5"/>
</g>
<!-- \\net\\netatmo\\ApiErrorType -->
<g id="node3" class="node"><title>\\net\\netatmo\\ApiErrorType</title>
<polygon fill="none" stroke="black" points="440.5,-986 361.5,-986 361.5,-950 440.5,-950 440.5,-986"/>
<text text-anchor="middle" x="401" y="-965.2" font-family="Times,serif" font-size="11.00">ApiErrorType</text>
</g>
<!-- \\net\\netatmo\\ApiErrorType&#45;&gt;\\net\\netatmo\\ClientException -->
<g id="edge2" class="edge"><title>\\net\\netatmo\\ApiErrorType&#45;&gt;\\net\\netatmo\\ClientException</title>
<path fill="none" stroke="black" d="M361.158,-954.403C351.431,-950.506 341.162,-945.955 332,-941 301.716,-924.62 269.908,-901.714 247.441,-884.439"/>
<polygon fill="none" stroke="black" points="249.353,-881.492 239.31,-878.119 245.057,-887.019 249.353,-881.492"/>
</g>
<!-- \\net\\netatmo\\CurlErrorType -->
<g id="node4" class="node"><title>\\net\\netatmo\\CurlErrorType</title>
<polygon fill="none" stroke="black" points="442,-932 360,-932 360,-896 442,-896 442,-932"/>
<text text-anchor="middle" x="401" y="-911.2" font-family="Times,serif" font-size="11.00">CurlErrorType</text>
</g>
<!-- \\net\\netatmo\\CurlErrorType&#45;&gt;\\net\\netatmo\\ClientException -->
<g id="edge3" class="edge"><title>\\net\\netatmo\\CurlErrorType&#45;&gt;\\net\\netatmo\\ClientException</title>
<path fill="none" stroke="black" d="M359.84,-902.149C333.487,-894.373 298.734,-884.118 270.107,-875.671"/>
<polygon fill="none" stroke="black" points="270.842,-872.239 260.26,-872.765 268.86,-878.952 270.842,-872.239"/>
</g>
<!-- \\net\\netatmo\\JsonErrorType -->
<g id="node5" class="node"><title>\\net\\netatmo\\JsonErrorType</title>
<polygon fill="none" stroke="black" points="442,-878 360,-878 360,-842 442,-842 442,-878"/>
<text text-anchor="middle" x="401" y="-857.2" font-family="Times,serif" font-size="11.00">JsonErrorType</text>
</g>
<!-- \\net\\netatmo\\JsonErrorType&#45;&gt;\\net\\netatmo\\ClientException -->
<g id="edge4" class="edge"><title>\\net\\netatmo\\JsonErrorType&#45;&gt;\\net\\netatmo\\ClientException</title>
<path fill="none" stroke="black" d="M359.84,-860C333.602,-860 299.038,-860 270.482,-860"/>
<polygon fill="none" stroke="black" points="270.26,-856.5 260.26,-860 270.26,-863.5 270.26,-856.5"/>
</g>
<!-- \\net\\netatmo\\InternalErrorType -->
<g id="node6" class="node"><title>\\net\\netatmo\\InternalErrorType</title>
<polygon fill="none" stroke="black" points="449.5,-824 352.5,-824 352.5,-788 449.5,-788 449.5,-824"/>
<text text-anchor="middle" x="401" y="-803.2" font-family="Times,serif" font-size="11.00">InternalErrorType</text>
</g>
<!-- \\net\\netatmo\\InternalErrorType&#45;&gt;\\net\\netatmo\\ClientException -->
<g id="edge5" class="edge"><title>\\net\\netatmo\\InternalErrorType&#45;&gt;\\net\\netatmo\\ClientException</title>
<path fill="none" stroke="black" d="M352.397,-820.047C327.136,-827.501 296.026,-836.681 269.999,-844.361"/>
<polygon fill="none" stroke="black" points="268.896,-841.037 260.295,-847.224 270.877,-847.751 268.896,-841.037"/>
</g>
<!-- \\net\\netatmo\\NotLoggedErrorType -->
<g id="node7" class="node"><title>\\net\\netatmo\\NotLoggedErrorType</title>
<polygon fill="none" stroke="black" points="457,-770 345,-770 345,-734 457,-734 457,-770"/>
<text text-anchor="middle" x="401" y="-749.2" font-family="Times,serif" font-size="11.00">NotLoggedErrorType</text>
</g>
<!-- \\net\\netatmo\\NotLoggedErrorType&#45;&gt;\\net\\netatmo\\ClientException -->
<g id="edge6" class="edge"><title>\\net\\netatmo\\NotLoggedErrorType&#45;&gt;\\net\\netatmo\\ClientException</title>
<path fill="none" stroke="black" d="M350.345,-770.124C344.065,-772.878 337.81,-775.858 332,-779 301.716,-795.38 269.908,-818.286 247.441,-835.561"/>
<polygon fill="none" stroke="black" points="245.057,-832.981 239.31,-841.881 249.353,-838.508 245.057,-832.981"/>
</g>
<!-- \\net\\netatmo\\ApiClient -->
<g id="node8" class="node"><title>\\net\\netatmo\\ApiClient</title>
<polygon fill="none" stroke="black" points="431,-716 371,-716 371,-680 431,-680 431,-716"/>
<text text-anchor="middle" x="401" y="-695.2" font-family="Times,serif" font-size="11.00">ApiClient</text>
</g>
<!-- \\net\\netatmo\\ApiHelper -->
<g id="node9" class="node"><title>\\net\\netatmo\\ApiHelper</title>
<polygon fill="none" stroke="black" points="432.5,-662 369.5,-662 369.5,-626 432.5,-626 432.5,-662"/>
<text text-anchor="middle" x="401" y="-641.2" font-family="Times,serif" font-size="11.00">ApiHelper</text>
</g>
<!-- \\net\\netatmo\\RestErrorCode -->
<g id="node10" class="node"><title>\\net\\netatmo\\RestErrorCode</title>
<polygon fill="none" stroke="black" points="442,-608 360,-608 360,-572 442,-572 442,-608"/>
<text text-anchor="middle" x="401" y="-587.2" font-family="Times,serif" font-size="11.00">RestErrorCode</text>
</g>
<!-- \\net\\netatmo\\Scopes -->
<g id="node11" class="node"><title>\\net\\netatmo\\Scopes</title>
<polygon fill="none" stroke="black" points="428,-554 374,-554 374,-518 428,-518 428,-554"/>
<text text-anchor="middle" x="401" y="-533.2" font-family="Times,serif" font-size="11.00">Scopes</text>
</g>
<!-- \\net\\netatmo\\ClientErrorCode -->
<g id="node12" class="node"><title>\\net\\netatmo\\ClientErrorCode</title>
<polygon fill="none" stroke="black" points="446,-500 356,-500 356,-464 446,-464 446,-500"/>
<text text-anchor="middle" x="401" y="-479.2" font-family="Times,serif" font-size="11.00">ClientErrorCode</text>
</g>
<!-- \\net\\netatmo\\PublicConst -->
<g id="node13" class="node"><title>\\net\\netatmo\\PublicConst</title>
<polygon fill="none" stroke="black" points="436,-446 366,-446 366,-410 436,-410 436,-446"/>
<text text-anchor="middle" x="401" y="-425.2" font-family="Times,serif" font-size="11.00">PublicConst</text>
</g>
<!-- \\net\\netatmo\\WifiRssiThreshold -->
<g id="node14" class="node"><title>\\net\\netatmo\\WifiRssiThreshold</title>
<polygon fill="none" stroke="black" points="451,-392 351,-392 351,-356 451,-356 451,-392"/>
<text text-anchor="middle" x="401" y="-371.2" font-family="Times,serif" font-size="11.00">WifiRssiThreshold</text>
</g>
<!-- \\net\\netatmo\\RadioRssiTreshold -->
<g id="node15" class="node"><title>\\net\\netatmo\\RadioRssiTreshold</title>
<polygon fill="none" stroke="black" points="451.5,-338 350.5,-338 350.5,-302 451.5,-302 451.5,-338"/>
<text text-anchor="middle" x="401" y="-317.2" font-family="Times,serif" font-size="11.00">RadioRssiTreshold</text>
</g>
<!-- \\net\\netatmo\\ScheduleTime -->
<g id="node16" class="node"><title>\\net\\netatmo\\ScheduleTime</title>
<polygon fill="none" stroke="black" points="441,-284 361,-284 361,-248 441,-248 441,-284"/>
<text text-anchor="middle" x="401" y="-263.2" font-family="Times,serif" font-size="11.00">ScheduleTime</text>
</g>
<!-- \\net\\netatmo\\BatteryLevelIndoorModule -->
<g id="node17" class="node"><title>\\net\\netatmo\\BatteryLevelIndoorModule</title>
<polygon fill="none" stroke="black" points="469.5,-230 332.5,-230 332.5,-194 469.5,-194 469.5,-230"/>
<text text-anchor="middle" x="401" y="-209.2" font-family="Times,serif" font-size="11.00">BatteryLevelIndoorModule</text>
</g>
<!-- \\net\\netatmo\\BatteryLevelModule -->
<g id="node18" class="node"><title>\\net\\netatmo\\BatteryLevelModule</title>
<polygon fill="none" stroke="black" points="455,-176 347,-176 347,-140 455,-140 455,-176"/>
<text text-anchor="middle" x="401" y="-155.2" font-family="Times,serif" font-size="11.00">BatteryLevelModule</text>
</g>
<!-- \\net\\netatmo\\BatteryLevelThermostat -->
<g id="node19" class="node"><title>\\net\\netatmo\\BatteryLevelThermostat</title>
<polygon fill="none" stroke="black" points="463,-122 339,-122 339,-86 463,-86 463,-122"/>
<text text-anchor="middle" x="401" y="-101.2" font-family="Times,serif" font-size="11.00">BatteryLevelThermostat</text>
</g>
<!-- \\net\\netatmo\\TimeBeforeDataExpire -->
<g id="node20" class="node"><title>\\net\\netatmo\\TimeBeforeDataExpire</title>
<polygon fill="none" stroke="black" points="461,-68 341,-68 341,-32 461,-32 461,-68"/>
<text text-anchor="middle" x="401" y="-47.2" font-family="Times,serif" font-size="11.00">TimeBeforeDataExpire</text>
</g>
</g>
</svg>
